<?xml version="1.0"?>
<svg width="256" height="256" xmlns="http://www.w3.org/2000/svg" xmlns:svg="http://www.w3.org/2000/svg" xmlns:xlink="http://www.w3.org/1999/xlink">
 <!-- Created with SVG-edit - http://svg-edit.googlecode.com/ -->
 <title>dhanasai.org</title>
 <defs>
  <symbol viewBox="0 0 31.876 31.876" height="31.876px" width="31.876px" y="0px" x="0px" id="svg_6" xmlns:xlink="http://www.w3.org/1999/xlink" xmlns="http://www.w3.org/2000/svg">
   <g>
    <g>
     <rect height="0.931" width="2.596" y="11.936" x="19.094"/>
     <circle r="1.486" cy="20.634" cx="3.667"/>
     <circle r="1.486" cy="22.946" cx="7.011"/>
     <circle r="1.486" cy="24.321" cx="10.949"/>
     <circle r="1.486" cy="24.728" cx="15.105"/>
     <circle r="1.486" cy="24.259" cx="19.292"/>
     <circle r="1.486" cy="22.509" cx="22.824"/>
     <circle r="1.486" cy="20.009" cx="25.824"/>
     <circle r="1.607" cy="25.19" cx="1.607"/>
     <circle r="1.607" cy="27.632" cx="5.339"/>
     <circle r="1.606" cy="29.114" cx="9.687"/>
     <circle r="1.606" cy="29.542" cx="14.436"/>
     <circle r="1.607" cy="29.22" cx="19.17"/>
     <circle r="1.607" cy="27.688" cx="23.464"/>
     <circle r="1.606" cy="25.327" cx="27.096"/>
     <circle r="1.606" cy="22.223" cx="30.27"/>
     <path d="m15.263,22.276001c6.525001,0 9.111001,-3.301001 10.014001,-5.013l0,-0.583c-0.598,1.392 -2.916,5.345999 -10.014001,5.345999c-8.583,0 -11.441999,-4.616999 -11.471,-4.664l-0.015,0.01l0,0.403999c0.783,1.024 3.993,4.500002 11.486,4.500002z"/>
     <path d="m14.975,26.983c7.938,0 11.816999,-4.41 12.896,-5.889l0,-0.434c-0.65,0.983 -4.42,6.071001 -12.896,6.071001c-9.079,0 -12.894,-4.688002 -13.135,-4.998001l0,0.384001c0.933,1.046 4.913,4.865999 13.135,4.865999z"/>
     <circle r="1.786" cy="9.751" cx="14.03"/>
     <path d="m12.414,14.789l0.033,0.666l0.094001,0l0,0.406l0,0.299999l0.384999,1.961l-0.361,0l0,0.563l1.364,0l0,-0.563l-0.109,0l0,-0.201l0,-0.079l0,-1.681l0.449,0l0,1.681l0,0.079l0,0.183001l-0.152,0l0,0.562l1.427,0l0,-0.562l-0.375999,0l0.38,-1.941999l0,-0.300001l0,-0.405999l0.113,0l0.091,-1.494l7.495,0l0,-10.024l-5.229,0l-2.001999,-2.001c0.073999,-0.122 0.120998,-0.263 0.120998,-0.417c0,-0.438 -0.355999,-0.793 -0.791999,-0.793c-0.438001,0 -0.792,0.355 -0.792,0.793c0,0.132 0.035,0.255 0.092,0.364l-2.055,2.054l-6.81,0l0,10.020999l6.557,0l0.077,0.83zm2.435,-12.653c0.136,0.109 0.307,0.177 0.495,0.177c0.167,0 0.322001,-0.053 0.45,-0.141l1.767001,1.767l-4.514001,0l1.802,-1.803zm-8.424,11.178l0,-8.731l16.176999,0l0,8.731l-6.810999,0l0.035999,-0.589l3.582001,-1.597l-0.405001,-0.780001l-2.719999,1.336l-1.604,0.124l-0.68,0.79l-0.659,-0.79l-1.099,0.143001l-3.012,-1.48l-0.422,0.860001l3.443001,1.691999l0.026999,0.292l-5.853,0l0,-0.000999z"/>
    </g>
   </g>
   <g/>
   <g/>
   <g/>
   <g/>
   <g/>
   <g/>
   <g/>
   <g/>
   <g/>
   <g/>
   <g/>
   <g/>
   <g/>
   <g/>
   <g/>
  </symbol>
 </defs>
 <g>
  <title>Layer 2</title>
  <ellipse id="svg_10" stroke="#3f7f00" ry="124.500004" rx="125.499996" cy="128.499997" cx="128" fill="#ffffff"/>
 </g>
 <g>
  <title>Layer 1</title>
  <g id="svg_4"/>
  <use fill="#7f7f00" x="5.881273" y="3.678285" transform="matrix(6.107341576290252,0,0,5.7217151003513695,-0.5100437482651046,-0.1167027237732583) " xlink:href="#svg_6" id="svg_7"/>
  <g id="svg_8"/>
  <text stroke="#000000" transform="matrix(1.1174311637878418,0,0,1.3272727727890015,-21.53026993572712,-73.80001026391983) " font-weight="bold" xml:space="preserve" text-anchor="middle" font-family="Sans-serif" font-size="24" id="svg_9" y="227.534246" x="136.949097" stroke-width="0" fill="#ff007f">dhanasai</text>
  <text stroke="#000000" transform="matrix(0.711526095867157,0,0,0.4909090995788574,53.26850936003029,124.34545242786407) " id="svg_14" font-weight="bold" xml:space="preserve" text-anchor="middle" font-family="Sans-serif" font-size="24" y="238.75" x="105.737225" stroke-width="0" fill="#007fff">ACADEMY</text>
 </g>
</svg>