<?xml version="1.0" encoding="iso-8859-1"?>
<!-- Generator: Adobe Illustrator 18.1.1, SVG Export Plug-In . SVG Version: 6.00 Build 0)  -->
<svg version="1.1" id="Capa_1" xmlns="http://www.w3.org/2000/svg" xmlns:xlink="http://www.w3.org/1999/xlink" x="0px" y="0px"
	 viewBox="0 0 309.412 309.412" style="enable-background:new 0 0 309.412 309.412;" xml:space="preserve">
<g>
	<g>
		<path style="fill:#010002;" d="M160.673,0v147.68h147.68V0C308.353,0,160.673,0,160.673,0z M265.839,80.511H206.17V68.577h59.669
			V80.511z"/>
		<path style="fill:#010002;" d="M1.059,148.384h147.68V0.704H1.059V148.384z M45.065,67.873h23.867V44.006h11.934v23.867h23.867
			v11.934H80.866v23.867H68.932V79.807H45.065V67.873z"/>
		<path style="fill:#010002;" d="M1.059,309.412h147.68v-147.68H1.059V309.412z M49.582,217.988l8.437-8.437l16.88,16.874
			l16.88-16.874l8.437,8.437l-16.88,16.874l16.88,16.874l-8.437,8.437l-16.88-16.874l-16.88,16.874l-8.437-8.437l16.88-16.874
			L49.582,217.988z"/>
		<path style="fill:#010002;" d="M160.673,308.708h147.68v-147.68h-147.68V308.708z M204.679,213.769h59.669v11.934h-59.669V213.769
			z M204.679,244.027h59.669v11.934h-59.669V244.027z"/>
	</g>
</g>
<g>
</g>
<g>
</g>
<g>
</g>
<g>
</g>
<g>
</g>
<g>
</g>
<g>
</g>
<g>
</g>
<g>
</g>
<g>
</g>
<g>
</g>
<g>
</g>
<g>
</g>
<g>
</g>
<g>
</g>
</svg>
